<?xml version="1.0" encoding="utf-8"?>
<!-- Generator: Adobe Illustrator 19.0.0, SVG Export Plug-In . SVG Version: 6.00 Build 0)  -->
<svg version="1.1" id="Ebene_1" xmlns="http://www.w3.org/2000/svg" xmlns:xlink="http://www.w3.org/1999/xlink" x="0px" y="0px"
	 viewBox="0 0 400 120" style="enable-background:new 0 0 400 120;" xml:space="preserve">
<style type="text/css">
	.st0{fill:#1565C0;}
	.st1{fill:#FFFFFF;}
	.st2{fill:#FF9800;}
</style>
<g id="XMLID_30_">
	<rect id="XMLID_120_" x="130.1" y="31.9" class="st0" width="55.7" height="7.3"/>
	<g id="XMLID_29_">
		<g id="XMLID_11_">
			<g id="XMLID_125_">
				<path id="XMLID_140_" class="st0" d="M229.3,61.2c4.4,2.8,6.6,6.9,6.6,12.5v15.5h-8.1V74c0-5.9-4.6-8.8-13.9-8.8h-20.6v24h-8.1
					V31.9h29.5c14.7,0,22.1,5.3,22.1,15.9C236.7,53.8,234.2,58.3,229.3,61.2z M214.8,39.2h-21.6v18.5h20.2c4.5,0,8.1-0.8,10.7-2.3
					c2.9-1.7,4.4-4.2,4.4-7.4C228.6,42.1,224,39.2,214.8,39.2z"/>
				<path id="XMLID_137_" class="st0" d="M287.1,89.2l-8.2-16.9h-28.2l-8.4,16.9h-9.1l28.8-57.3h6.3L296,89.2H287.1z M265,43.8
					l-10.7,21.1h21L265,43.8z"/>
				<path id="XMLID_126_" class="st0" d="M336.3,62.3c-4.2,2.3-9.4,3.5-15.6,3.5h-19.4v23.4h-8.1V31.9h28.5
					c15.2,0,22.8,5.7,22.8,17.2C344.5,54.9,341.8,59.3,336.3,62.3z M322.2,39.2h-20.9v19.2h21c4.1,0,7.4-0.8,9.9-2.4
					c2.8-1.7,4.1-4,4.1-6.9C336.3,42.5,331.6,39.2,322.2,39.2z"/>
			</g>
		</g>
		<rect id="XMLID_117_" x="141.7" y="57.7" class="st0" width="32.5" height="7.3"/>
		<rect id="XMLID_32_" x="149.8" y="81.9" class="st0" width="16.2" height="7.3"/>
		<path id="XMLID_28_" class="st0" d="M72.2,49.3c8,2.6,13.4,7.4,13.4,13c0,8.3-12.2,15.1-27.3,15.1c-0.2,0-0.5,0-0.7,0
			c-2.9,22.7-13.3,39.5-25.6,39.5c-14.6,0-26.5-23.5-26.5-52.6c0-18.8,5-35.4,12.5-44.6c0,0,0,0,0,0c2.1-2.9,5.5-5.6,9.7-7.8
			c8.7-4.6,21.3-7.5,35.2-7.5c26.3,0,47.6,10.2,47.6,22.8C110.5,38,94,47.2,72.2,49.3z"/>
	</g>
</g>
<path id="XMLID_27_" class="st1" d="M48.3,42.5c5.7,1.8,9.5,5.2,9.5,9c0,5.8-8.7,10.4-19.3,10.4c-0.2,0-0.3,0-0.5,0
	c-2.1,15.7-9.4,27.4-18.1,27.4C9.4,89.3,1,73,1,52.8c0-13.1,3.5-24.5,8.8-31c0,0,0,0,0,0c1.5-2,3.9-3.9,6.9-5.4
	c6.2-3.2,15-5.2,24.9-5.2c18.6,0,33.7,7.1,33.7,15.8C75.4,34.7,63.7,41.1,48.3,42.5z"/>
<g id="XMLID_26_">
	<g id="XMLID_2_">
		<g id="XMLID_127_">
			<path id="XMLID_145_" class="st2" d="M333.1,89.4c-2.8,0-5-0.5-6.8-1.4c-2.2-1.2-3.4-3.1-3.4-5.7v-1.3h3v1.3
				c0,3.1,2.4,4.6,7.2,4.6c1.8,0,3.2-0.2,4.3-0.7c1.3-0.6,2-1.4,2-2.5c0-0.8-0.2-1.4-0.6-1.7c-0.4-0.4-1.1-0.7-2.2-1
				c-0.6-0.2-2-0.5-4.3-0.9c-2.7-0.5-4.5-1-5.5-1.5c-2.1-1-3.1-2.5-3.1-4.5c0-3.7,3-5.6,8.9-5.6c6.2,0,9.3,2.5,9.4,7.5H339
				c-0.1-2.2-0.8-3.5-1.9-4.1c-1-0.5-2.5-0.8-4.6-0.8c-4,0-5.9,1-5.9,3c0,0.9,0.5,1.6,1.4,2.1c0.8,0.4,2.1,0.7,4.1,1
				c3.8,0.6,6.3,1.3,7.6,2c1.7,1,2.6,2.5,2.6,4.5c0,2.1-1.1,3.6-3.3,4.6C337.3,89,335.4,89.4,333.1,89.4z"/>
			<path id="XMLID_132_" class="st2" d="M362.7,86.6c-2.1,1.9-5,2.8-8.5,2.8c-3.6,0-6.5-0.9-8.5-2.8s-3.1-4.5-3.1-7.7
				c0-3.3,1.1-5.8,3.2-7.6c2.1-1.8,4.9-2.7,8.5-2.7s6.4,0.9,8.5,2.7c2.1,1.8,3.2,4.4,3.2,7.6C365.9,82.1,364.8,84.7,362.7,86.6z
				 M360.7,73.2c-1.5-1.3-3.7-2-6.5-2s-4.9,0.7-6.4,2c-1.5,1.3-2.3,3.2-2.3,5.7s0.8,4.4,2.3,5.8s3.7,2.1,6.4,2.1
				c2.8,0,5-0.7,6.5-2.1s2.3-3.3,2.3-5.8C363,76.4,362.2,74.5,360.7,73.2z"/>
			<path id="XMLID_130_" class="st2" d="M369.3,71.1v6h11.2v2.7h-11.2v9.4h-2.9V68.5h16v2.7H369.3z"/>
			<path id="XMLID_128_" class="st2" d="M391,71.1v18.1h-2.9V71.1h-7.9v-2.7h18.8v2.7H391z"/>
		</g>
	</g>
	<path id="XMLID_24_" class="st2" d="M32.3,40.2c3.5,1.1,5.8,3.2,5.8,5.5c0,3.6-5.3,6.4-11.9,6.4c-0.1,0-0.2,0-0.3,0
		C24.6,61.8,20.1,69,14.7,69C8.4,69,3.2,58.9,3.2,46.5c0-8,2.2-15.1,5.4-19.1c0,0,0,0,0,0c0.9-1.3,2.4-2.4,4.2-3.3
		c3.8-2,9.3-3.2,15.3-3.2c11.5,0,20.7,4.4,20.7,9.7C49,35.4,41.8,39.3,32.3,40.2z"/>
</g>
<g id="XMLID_1_">
</g>
<g id="XMLID_17_">
</g>
<g id="XMLID_22_">
</g>
<g id="XMLID_23_">
</g>
<g id="XMLID_25_">
</g>
<g id="XMLID_33_">
</g>
<g id="XMLID_34_">
</g>
<g id="XMLID_35_">
</g>
<g id="XMLID_36_">
</g>
<g id="XMLID_37_">
</g>
<g id="XMLID_38_">
</g>
<g id="XMLID_39_">
</g>
<g id="XMLID_40_">
</g>
<g id="XMLID_41_">
</g>
<g id="XMLID_42_">
</g>
</svg>
